<svg width="242" height="27" viewBox="0 0 242 27" fill="none" xmlns="http://www.w3.org/2000/svg">
<path d="M21.6643 26V9.224L15.1123 21.716H12.3403L5.78825 9.224V26H0.82025V0.439999H6.14825L13.7083 14.984L21.3403 0.439999H26.6323V26H21.6643ZM39.9323 26.36C38.4203 26.36 37.0523 26.108 35.8283 25.604C34.6043 25.076 33.5603 24.368 32.6963 23.48C31.8323 22.568 31.1603 21.536 30.6803 20.384C30.2243 19.208 29.9963 17.972 29.9963 16.676C29.9963 14.876 30.3923 13.232 31.1843 11.744C32.0003 10.256 33.1523 9.068 34.6403 8.18C36.1523 7.268 37.9283 6.812 39.9683 6.812C42.0323 6.812 43.7963 7.268 45.2603 8.18C46.7243 9.068 47.8403 10.256 48.6083 11.744C49.4003 13.208 49.7963 14.792 49.7963 16.496C49.7963 16.784 49.7843 17.084 49.7603 17.396C49.7363 17.684 49.7123 17.924 49.6883 18.116H35.1083C35.2043 19.076 35.4803 19.916 35.9363 20.636C36.4163 21.356 37.0163 21.908 37.7363 22.292C38.4803 22.652 39.2723 22.832 40.1123 22.832C41.0723 22.832 41.9723 22.604 42.8123 22.148C43.6763 21.668 44.2643 21.044 44.5763 20.276L48.7163 21.428C48.2603 22.388 47.6003 23.24 46.7363 23.984C45.8963 24.728 44.9003 25.316 43.7483 25.748C42.5963 26.156 41.3243 26.36 39.9323 26.36ZM35.0003 15.056H44.8643C44.7683 14.096 44.4923 13.268 44.0363 12.572C43.6043 11.852 43.0283 11.3 42.3083 10.916C41.5883 10.508 40.7843 10.304 39.8963 10.304C39.0323 10.304 38.2403 10.508 37.5203 10.916C36.8243 11.3 36.2483 11.852 35.7923 12.572C35.3603 13.268 35.0963 14.096 35.0003 15.056ZM82.0391 26H77.2151V15.416C77.2151 13.928 76.9511 12.836 76.4231 12.14C75.9191 11.42 75.2111 11.06 74.2991 11.06C73.3631 11.06 72.4631 11.432 71.5991 12.176C70.7591 12.896 70.1591 13.844 69.7991 15.02V26H64.9751V15.416C64.9751 13.904 64.7111 12.8 64.1831 12.104C63.6791 11.408 62.9711 11.06 62.0591 11.06C61.1231 11.06 60.2231 11.42 59.3591 12.14C58.5191 12.86 57.9191 13.808 57.5591 14.984V26H52.7351V7.136H57.0911V10.628C57.8111 9.404 58.7711 8.468 59.9711 7.82C61.1711 7.148 62.5511 6.812 64.1111 6.812C65.6711 6.812 66.8831 7.196 67.7471 7.964C68.6351 8.732 69.1991 9.68 69.4391 10.808C70.2071 9.512 71.1791 8.528 72.3551 7.856C73.5551 7.16 74.8991 6.812 76.3871 6.812C77.5631 6.812 78.5111 7.028 79.2311 7.46C79.9751 7.868 80.5511 8.432 80.9591 9.152C81.3671 9.848 81.6431 10.64 81.7871 11.528C81.9551 12.416 82.0391 13.316 82.0391 14.228V26ZM94.987 26.36C93.475 26.36 92.107 26.108 90.883 25.604C89.659 25.076 88.615 24.368 87.751 23.48C86.887 22.568 86.215 21.536 85.735 20.384C85.279 19.208 85.051 17.972 85.051 16.676C85.051 14.876 85.447 13.232 86.239 11.744C87.055 10.256 88.207 9.068 89.695 8.18C91.207 7.268 92.983 6.812 95.023 6.812C97.087 6.812 98.851 7.268 100.315 8.18C101.779 9.068 102.895 10.256 103.663 11.744C104.455 13.208 104.851 14.792 104.851 16.496C104.851 16.784 104.839 17.084 104.815 17.396C104.791 17.684 104.767 17.924 104.743 18.116H90.163C90.259 19.076 90.535 19.916 90.991 20.636C91.471 21.356 92.071 21.908 92.791 22.292C93.535 22.652 94.327 22.832 95.167 22.832C96.127 22.832 97.027 22.604 97.867 22.148C98.731 21.668 99.319 21.044 99.631 20.276L103.771 21.428C103.315 22.388 102.655 23.24 101.791 23.984C100.951 24.728 99.955 25.316 98.803 25.748C97.651 26.156 96.379 26.36 94.987 26.36ZM90.055 15.056H99.919C99.823 14.096 99.547 13.268 99.091 12.572C98.659 11.852 98.083 11.3 97.363 10.916C96.643 10.508 95.839 10.304 94.951 10.304C94.087 10.304 93.295 10.508 92.575 10.916C91.879 11.3 91.303 11.852 90.847 12.572C90.415 13.268 90.151 14.096 90.055 15.056ZM114.738 26.36C113.13 26.36 111.594 26.096 110.13 25.568C108.666 25.04 107.406 24.26 106.35 23.228L108.078 20.096C109.206 21.008 110.31 21.68 111.39 22.112C112.494 22.544 113.55 22.76 114.558 22.76C115.494 22.76 116.238 22.592 116.79 22.256C117.366 21.92 117.654 21.416 117.654 20.744C117.654 20.288 117.498 19.94 117.186 19.7C116.874 19.436 116.418 19.208 115.818 19.016C115.242 18.824 114.534 18.608 113.694 18.368C112.302 17.912 111.138 17.468 110.202 17.036C109.266 16.604 108.558 16.064 108.078 15.416C107.622 14.744 107.394 13.892 107.394 12.86C107.394 11.612 107.706 10.544 108.33 9.656C108.978 8.744 109.866 8.036 110.994 7.532C112.146 7.028 113.49 6.776 115.026 6.776C116.37 6.776 117.642 6.992 118.842 7.424C120.042 7.832 121.134 8.504 122.118 9.44L120.174 12.5C119.214 11.756 118.302 11.216 117.438 10.88C116.574 10.52 115.698 10.34 114.81 10.34C114.306 10.34 113.826 10.4 113.37 10.52C112.938 10.64 112.578 10.844 112.29 11.132C112.026 11.396 111.894 11.78 111.894 12.284C111.894 12.74 112.014 13.1 112.254 13.364C112.518 13.604 112.902 13.82 113.406 14.012C113.934 14.204 114.57 14.42 115.314 14.66C116.826 15.092 118.098 15.536 119.13 15.992C120.186 16.448 120.978 17.012 121.506 17.684C122.034 18.332 122.298 19.232 122.298 20.384C122.298 22.256 121.614 23.72 120.246 24.776C118.878 25.832 117.042 26.36 114.738 26.36ZM136.526 26.18C134.87 26.18 133.298 25.844 131.81 25.172C130.346 24.5 129.05 23.576 127.922 22.4C126.818 21.2 125.954 19.808 125.33 18.224C124.706 16.64 124.394 14.924 124.394 13.076C124.394 11.324 124.706 9.68 125.33 8.144C125.954 6.584 126.83 5.216 127.958 4.04C129.086 2.864 130.406 1.94 131.918 1.268C133.43 0.595999 135.074 0.259999 136.85 0.259999C139.25 0.259999 141.302 0.775999 143.006 1.808C144.734 2.816 146.03 4.16 146.894 5.84L143.186 8.576C142.538 7.304 141.626 6.332 140.45 5.66C139.298 4.988 138.038 4.652 136.67 4.652C135.59 4.652 134.606 4.88 133.718 5.336C132.83 5.792 132.062 6.416 131.414 7.208C130.766 8 130.262 8.912 129.902 9.944C129.566 10.976 129.398 12.068 129.398 13.22C129.398 14.444 129.578 15.572 129.938 16.604C130.322 17.636 130.85 18.536 131.522 19.304C132.218 20.072 133.022 20.684 133.934 21.14C134.846 21.572 135.854 21.788 136.958 21.788C138.254 21.788 139.49 21.452 140.666 20.78C141.866 20.108 142.982 19.124 144.014 17.828V22.724C141.878 25.028 139.382 26.18 136.526 26.18ZM143.654 16.496H138.506V12.86H147.758V26H143.654V16.496ZM150.228 20.42C150.228 19.196 150.564 18.128 151.236 17.216C151.932 16.28 152.892 15.56 154.116 15.056C155.34 14.552 156.744 14.3 158.328 14.3C159.12 14.3 159.924 14.36 160.74 14.48C161.556 14.6 162.264 14.792 162.864 15.056V14.048C162.864 12.848 162.504 11.924 161.784 11.276C161.088 10.628 160.044 10.304 158.652 10.304C157.62 10.304 156.636 10.484 155.7 10.844C154.764 11.204 153.78 11.732 152.748 12.428L151.2 9.26C152.448 8.444 153.72 7.832 155.016 7.424C156.336 7.016 157.716 6.812 159.156 6.812C161.844 6.812 163.932 7.484 165.42 8.828C166.932 10.172 167.688 12.092 167.688 14.588V20.6C167.688 21.104 167.772 21.464 167.94 21.68C168.132 21.896 168.432 22.028 168.84 22.076V26C168.408 26.072 168.012 26.132 167.652 26.18C167.316 26.228 167.028 26.252 166.788 26.252C165.828 26.252 165.096 26.036 164.592 25.604C164.112 25.172 163.812 24.644 163.692 24.02L163.584 23.048C162.768 24.104 161.748 24.92 160.524 25.496C159.3 26.072 158.052 26.36 156.78 26.36C155.532 26.36 154.404 26.108 153.396 25.604C152.412 25.076 151.632 24.368 151.056 23.48C150.504 22.568 150.228 21.548 150.228 20.42ZM161.964 21.392C162.228 21.104 162.444 20.816 162.612 20.528C162.78 20.24 162.864 19.976 162.864 19.736V17.828C162.288 17.588 161.664 17.408 160.992 17.288C160.32 17.144 159.684 17.072 159.084 17.072C157.836 17.072 156.804 17.348 155.988 17.9C155.196 18.428 154.8 19.136 154.8 20.024C154.8 20.504 154.932 20.96 155.196 21.392C155.46 21.824 155.844 22.172 156.348 22.436C156.852 22.7 157.452 22.832 158.148 22.832C158.868 22.832 159.576 22.7 160.272 22.436C160.968 22.148 161.532 21.8 161.964 21.392ZM201.5 26H196.676V15.416C196.676 13.928 196.412 12.836 195.884 12.14C195.38 11.42 194.672 11.06 193.76 11.06C192.824 11.06 191.924 11.432 191.06 12.176C190.22 12.896 189.62 13.844 189.26 15.02V26H184.436V15.416C184.436 13.904 184.172 12.8 183.644 12.104C183.14 11.408 182.432 11.06 181.52 11.06C180.584 11.06 179.684 11.42 178.82 12.14C177.98 12.86 177.38 13.808 177.02 14.984V26H172.196V7.136H176.552V10.628C177.272 9.404 178.232 8.468 179.432 7.82C180.632 7.148 182.012 6.812 183.572 6.812C185.132 6.812 186.344 7.196 187.208 7.964C188.096 8.732 188.66 9.68 188.9 10.808C189.668 9.512 190.64 8.528 191.816 7.856C193.016 7.16 194.36 6.812 195.848 6.812C197.024 6.812 197.972 7.028 198.692 7.46C199.436 7.868 200.012 8.432 200.42 9.152C200.828 9.848 201.104 10.64 201.248 11.528C201.416 12.416 201.5 13.316 201.5 14.228V26ZM214.448 26.36C212.936 26.36 211.568 26.108 210.344 25.604C209.12 25.076 208.076 24.368 207.212 23.48C206.348 22.568 205.676 21.536 205.196 20.384C204.74 19.208 204.512 17.972 204.512 16.676C204.512 14.876 204.908 13.232 205.7 11.744C206.516 10.256 207.668 9.068 209.156 8.18C210.668 7.268 212.444 6.812 214.484 6.812C216.548 6.812 218.312 7.268 219.776 8.18C221.24 9.068 222.356 10.256 223.124 11.744C223.916 13.208 224.312 14.792 224.312 16.496C224.312 16.784 224.3 17.084 224.276 17.396C224.252 17.684 224.228 17.924 224.204 18.116H209.624C209.72 19.076 209.996 19.916 210.452 20.636C210.932 21.356 211.532 21.908 212.252 22.292C212.996 22.652 213.788 22.832 214.628 22.832C215.588 22.832 216.488 22.604 217.328 22.148C218.192 21.668 218.78 21.044 219.092 20.276L223.232 21.428C222.776 22.388 222.116 23.24 221.252 23.984C220.412 24.728 219.416 25.316 218.264 25.748C217.112 26.156 215.84 26.36 214.448 26.36ZM209.516 15.056H219.38C219.284 14.096 219.008 13.268 218.552 12.572C218.12 11.852 217.544 11.3 216.824 10.916C216.104 10.508 215.3 10.304 214.412 10.304C213.548 10.304 212.756 10.508 212.036 10.916C211.34 11.3 210.764 11.852 210.308 12.572C209.876 13.268 209.612 14.096 209.516 15.056ZM234.199 26.36C232.591 26.36 231.055 26.096 229.591 25.568C228.127 25.04 226.867 24.26 225.811 23.228L227.539 20.096C228.667 21.008 229.771 21.68 230.851 22.112C231.955 22.544 233.011 22.76 234.019 22.76C234.955 22.76 235.699 22.592 236.251 22.256C236.827 21.92 237.115 21.416 237.115 20.744C237.115 20.288 236.959 19.94 236.647 19.7C236.335 19.436 235.879 19.208 235.279 19.016C234.703 18.824 233.995 18.608 233.155 18.368C231.763 17.912 230.599 17.468 229.663 17.036C228.727 16.604 228.019 16.064 227.539 15.416C227.083 14.744 226.855 13.892 226.855 12.86C226.855 11.612 227.167 10.544 227.791 9.656C228.439 8.744 229.327 8.036 230.455 7.532C231.607 7.028 232.951 6.776 234.487 6.776C235.831 6.776 237.103 6.992 238.303 7.424C239.503 7.832 240.595 8.504 241.579 9.44L239.635 12.5C238.675 11.756 237.763 11.216 236.899 10.88C236.035 10.52 235.159 10.34 234.271 10.34C233.767 10.34 233.287 10.4 232.831 10.52C232.399 10.64 232.039 10.844 231.751 11.132C231.487 11.396 231.355 11.78 231.355 12.284C231.355 12.74 231.475 13.1 231.715 13.364C231.979 13.604 232.363 13.82 232.867 14.012C233.395 14.204 234.031 14.42 234.775 14.66C236.287 15.092 237.559 15.536 238.591 15.992C239.647 16.448 240.439 17.012 240.967 17.684C241.495 18.332 241.759 19.232 241.759 20.384C241.759 22.256 241.075 23.72 239.707 24.776C238.339 25.832 236.503 26.36 234.199 26.36Z" fill="url(#paint0_linear_315_19)"/>
<defs>
<linearGradient id="paint0_linear_315_19" x1="-2" y1="0.289486" x2="242.841" y2="35.1209" gradientUnits="userSpaceOnUse">
<stop stop-color="#BB4DFF"/>
<stop offset="0.9999" stop-color="#7C00C8"/>
<stop offset="1" stop-color="#BB4DFF" stop-opacity="0"/>
</linearGradient>
</defs>
</svg>
